<svg width="722" height="458" viewBox="0 0 722 458" fill="none" xmlns="http://www.w3.org/2000/svg">
<g filter="url(#filter0_i)">
<rect width="722" height="458" rx="25" fill="url(#paint0_linear)"/>
</g>
<text fill="#FEFBFF" xml:space="preserve" style="white-space: pre" font-family="Sora" font-size="24" font-weight="600" letter-spacing="0.1em"><tspan x="220" y="364.16">WESLEY ELIAS</tspan></text>
<path fill-rule="evenodd" clip-rule="evenodd" d="M95.3452 319.859C95.3452 319.872 95.3453 319.878 95.3463 319.879C95.3474 319.879 95.3496 319.871 95.354 319.856C95.3731 319.79 95.4331 319.584 95.6221 319.257C95.8687 318.83 96.2717 318.313 96.8653 317.826C98.0224 316.877 99.9786 315.982 103.09 316.211C115.793 317.143 122.736 325.857 122.736 332.161V372.168C122.736 372.581 122.663 372.734 122.642 372.769C122.6 372.794 122.441 372.866 122.028 372.866H114.306C113.893 372.866 113.734 372.794 113.692 372.769C113.671 372.734 113.599 372.581 113.599 372.168V335.238C113.599 332.612 112.315 330.043 110.474 328.159C108.627 326.268 106.04 324.886 103.213 324.886H95.3452V319.859ZM122.647 372.766C122.651 372.762 122.653 372.76 122.654 372.76C122.654 372.76 122.652 372.762 122.647 372.766ZM113.681 372.76C113.681 372.76 113.683 372.762 113.688 372.766C113.683 372.762 113.68 372.76 113.681 372.76ZM103.213 328.245H95.3452V372.168C95.3451 373.221 95.156 374.405 94.2613 375.256C93.3862 376.088 92.2223 376.225 91.2784 376.225H83.4154C82.537 376.225 81.456 376.058 80.5915 375.305C79.6809 374.511 79.3486 373.37 79.3486 372.168V334.819C79.3486 332.736 80.5152 330.295 82.1528 328.43C83.8125 326.54 86.2707 324.886 89.1714 324.886H91.9856V319.851C91.9856 319.113 92.3018 318.288 92.713 317.577C93.1569 316.808 93.8212 315.978 94.7349 315.229C96.5921 313.705 99.4099 312.572 103.336 312.86C117.312 313.886 126.095 323.651 126.095 332.161V372.168C126.095 373.159 125.872 374.257 125.065 375.097C124.246 375.95 123.128 376.225 122.028 376.225H114.306C113.207 376.225 112.088 375.95 111.269 375.097C110.462 374.257 110.239 373.159 110.239 372.168V335.238C110.239 333.679 109.445 331.913 108.071 330.506C106.704 329.107 104.938 328.245 103.213 328.245ZM89.1714 328.245H91.9856V372.168C91.9856 372.506 91.9534 372.704 91.9249 372.808C91.8146 372.837 91.615 372.866 91.2784 372.866H83.4154C82.9884 372.866 82.834 372.791 82.8028 372.774C82.774 372.725 82.7082 372.563 82.7082 372.168V334.819C82.7082 333.824 83.3665 332.139 84.6771 330.647C85.9656 329.179 87.5788 328.245 89.1714 328.245ZM82.8161 372.791C82.8156 372.792 82.8116 372.788 82.8054 372.778C82.8134 372.786 82.8165 372.791 82.8161 372.791ZM163.431 381.121C163.431 381.108 163.431 381.101 163.43 381.101C163.429 381.101 163.427 381.108 163.422 381.124C163.403 381.189 163.343 381.395 163.154 381.723C162.908 382.149 162.505 382.666 161.911 383.153C160.754 384.102 158.798 384.997 155.686 384.769C142.984 383.836 136.041 375.123 136.041 368.819V328.812C136.041 328.399 136.114 328.246 136.135 328.211C136.176 328.186 136.335 328.114 136.748 328.114H144.471C144.884 328.114 145.043 328.186 145.084 328.211C145.105 328.246 145.178 328.399 145.178 328.812V365.741C145.178 368.367 146.461 370.937 148.302 372.821C150.15 374.712 152.737 376.094 155.563 376.094H163.431V381.121ZM136.125 328.218C136.126 328.217 136.128 328.216 136.13 328.214C136.125 328.217 136.123 328.219 136.123 328.219C136.123 328.22 136.124 328.219 136.125 328.218ZM145.096 328.219C145.096 328.22 145.093 328.218 145.089 328.214C145.094 328.217 145.096 328.219 145.096 328.219ZM155.563 372.734H163.431V328.812C163.431 327.759 163.621 326.575 164.515 325.724C165.39 324.892 166.554 324.754 167.498 324.754H175.361C176.239 324.754 177.321 324.921 178.185 325.675C179.096 326.469 179.428 327.609 179.428 328.812V366.161C179.428 368.243 178.261 370.685 176.624 372.55C174.964 374.44 172.506 376.094 169.605 376.094H166.791V381.128C166.791 381.867 166.475 382.691 166.064 383.403C165.62 384.172 164.955 385.002 164.042 385.751C162.184 387.274 159.367 388.408 155.44 388.119C141.464 387.093 132.681 377.328 132.681 368.819V328.812C132.681 327.821 132.904 326.723 133.711 325.883C134.53 325.029 135.649 324.754 136.748 324.754H144.471C145.57 324.754 146.689 325.029 147.508 325.883C148.314 326.723 148.537 327.821 148.537 328.812V365.741C148.537 367.3 149.331 369.067 150.705 370.473C152.073 371.873 153.838 372.734 155.563 372.734ZM169.605 372.734H166.791V328.812C166.791 328.473 166.823 328.276 166.852 328.172C166.962 328.143 167.161 328.114 167.498 328.114H175.361C175.788 328.114 175.943 328.188 175.974 328.206C176.003 328.255 176.068 328.416 176.068 328.812V366.161C176.068 367.156 175.41 368.84 174.099 370.333C172.811 371.8 171.198 372.734 169.605 372.734ZM175.963 328.19C175.961 328.189 175.961 328.188 175.96 328.188C175.96 328.189 175.963 328.194 175.971 328.202C175.967 328.196 175.965 328.192 175.963 328.19Z" fill="#FEFBFF"/>
<circle cx="581.889" cy="86.4971" r="45.7505" fill="#5A5A58"/>
<circle cx="637.647" cy="86.4971" r="45.7505" fill="#BFBFBF"/>
<path fill-rule="evenodd" clip-rule="evenodd" d="M609.768 122.595C620.636 114.23 627.64 101.092 627.64 86.3172C627.64 71.5427 620.636 58.404 609.768 50.0396C598.9 58.404 591.897 71.5427 591.897 86.3172C591.897 101.092 598.9 114.23 609.768 122.595Z" fill="#909090"/>
<rect x="80.0723" y="156.072" width="97.9347" height="69.3406" rx="6.07624" fill="url(#paint1_linear)" stroke="#211F21" stroke-width="2.14455"/>
<path d="M80.4297 178.59H109.739" stroke="#211F21" stroke-width="2" stroke-linecap="round"/>
<path d="M80.4297 200.75H109.096" stroke="#211F21" stroke-width="2" stroke-linecap="round"/>
<path d="M149.055 200.75H177.649" stroke="#211F21" stroke-width="2" stroke-linecap="round"/>
<path d="M148.626 179.305H177.649" stroke="#211F21" stroke-width="2" stroke-linecap="round"/>
<circle cx="129.04" cy="166.438" r="2.14455" fill="#211F21"/>
<path d="M230.705 205.701C235.976 192.467 236.577 184.996 230.705 171.522C230.081 170.093 230.705 168.901 231.42 168.663C232.134 168.425 233.24 168.663 233.921 170.093C240.839 184.608 240.418 192.747 234.279 207.265C233.564 208.695 232.226 208.875 231.42 208.337C230.476 207.708 230.259 206.819 230.705 205.701Z" fill="#FEFBFF"/>
<path d="M223.199 172.595C222.484 172.952 222.027 174.308 222.841 175.812C227.65 185.817 227.453 191.54 222.841 201.904C222.338 202.949 222.65 204.103 223.556 204.406C224.628 204.763 225.565 204.003 226.058 202.976C231.352 191.962 231.492 185.634 226.058 174.024C225.556 172.952 224.271 172.059 223.199 172.595Z" fill="#FEFBFF"/>
<path d="M216.05 177.241C214.978 177.599 214.788 178.785 215.335 180.101C218.182 186.94 218.63 190.775 215.335 197.615C214.693 198.806 214.481 200.07 215.693 200.474C216.904 200.878 217.777 200.24 218.195 199.402C222.418 191.027 221.471 186.331 218.195 177.956C217.915 177.241 217.123 176.884 216.05 177.241Z" fill="#FEFBFF"/>
<path d="M208.544 180.101C207.472 180.815 207.32 181.9 208.187 183.675C209.996 187.442 209.955 189.558 208.187 193.325C207.365 194.987 207.115 196.9 208.544 197.257C209.974 197.615 210.609 197.107 211.404 195.113C213.229 189.865 213.407 186.898 211.404 181.53C210.942 180.138 209.974 179.386 208.544 180.101Z" fill="#FEFBFF"/>
<path d="M144.766 170.727C142.024 161.386 136.903 156.787 128.682 156.787C118.674 156.787 115.846 164.408 109.739 178.233C113.649 187.384 113.69 192.314 109.739 200.75C116.145 219.132 120.891 224.793 129.04 224.698C139.762 224.698 142.814 215.61 148.698 200.75C145.604 192.375 145.273 187.753 148.151 179.377" stroke="#211F21" stroke-width="2" stroke-linecap="round"/>
<defs>
<filter id="filter0_i" x="0" y="0" width="725" height="461" filterUnits="userSpaceOnUse" color-interpolation-filters="sRGB">
<feFlood flood-opacity="0" result="BackgroundImageFix"/>
<feBlend mode="normal" in="SourceGraphic" in2="BackgroundImageFix" result="shape"/>
<feColorMatrix in="SourceAlpha" type="matrix" values="0 0 0 0 0 0 0 0 0 0 0 0 0 0 0 0 0 0 127 0" result="hardAlpha"/>
<feOffset dx="3" dy="3"/>
<feGaussianBlur stdDeviation="3"/>
<feComposite in2="hardAlpha" operator="arithmetic" k2="-1" k3="1"/>
<feColorMatrix type="matrix" values="0 0 0 0 1 0 0 0 0 1 0 0 0 0 1 0 0 0 0.25 0"/>
<feBlend mode="normal" in2="shape" result="effect1_innerShadow"/>
</filter>
<linearGradient id="paint0_linear" x1="702" y1="17" x2="14" y2="449" gradientUnits="userSpaceOnUse">
<stop stop-color="#080808"/>
<stop offset="1" stop-color="#232524"/>
</linearGradient>
<linearGradient id="paint1_linear" x1="129.04" y1="155" x2="129.04" y2="226.485" gradientUnits="userSpaceOnUse">
<stop stop-color="#F4F4F4"/>
<stop offset="1" stop-color="#D6D6D6"/>
</linearGradient>
</defs>
</svg>
