<svg width="722" height="458" viewBox="0 0 722 458" fill="none" xmlns="http://www.w3.org/2000/svg">
<g filter="url(#filter0_i)">
<rect width="722" height="458" rx="25" fill="url(#paint0_linear)"/>
</g>
<text fill="#FEFBFF" xml:space="preserve" style="white-space: pre" font-family="Sora" font-size="24" font-weight="600" letter-spacing="0.1em"><tspan x="220" y="364.16">WESLEY ELIAS</tspan></text>
<path fill-rule="evenodd" clip-rule="evenodd" d="M93.9856 319.171C93.9857 319.17 93.9865 319.144 93.9969 319.091C94.0074 319.037 94.0256 318.967 94.0549 318.88C94.1137 318.705 94.2103 318.485 94.3537 318.237C94.6402 317.741 95.0961 317.161 95.7544 316.621C97.0533 315.556 99.1838 314.612 102.46 314.853C115.42 315.804 122.736 324.731 122.736 331.481V371.488C122.736 372.125 122.588 372.42 122.453 372.561C122.324 372.695 122.038 372.866 121.349 372.866H113.626C112.936 372.866 112.65 372.695 112.522 372.561C112.386 372.42 112.239 372.125 112.239 371.488V334.559C112.239 332.148 111.055 329.741 109.308 327.954C107.558 326.163 105.137 324.886 102.534 324.886H93.9856V319.171L93.9856 319.171ZM102.534 326.886H93.9856V371.488C93.9856 372.483 93.802 373.428 93.1131 374.083C92.4359 374.727 91.5015 374.866 90.5986 374.866H82.7356C81.9286 374.866 81.0435 374.71 80.3585 374.112C79.6459 373.491 79.3486 372.572 79.3486 371.488V334.139C79.3486 332.277 80.4124 329.988 81.9838 328.199C83.5684 326.394 85.8557 324.886 88.4916 324.886H91.9856V319.171C91.9856 318.604 92.2373 317.902 92.6218 317.237C93.0258 316.537 93.6373 315.771 94.4862 315.074C96.2018 313.667 98.8452 312.582 102.607 312.858C116.325 313.865 124.736 323.418 124.736 331.481V371.488C124.736 372.389 124.532 373.284 123.895 373.946C123.251 374.617 122.344 374.866 121.349 374.866H113.626C112.631 374.866 111.723 374.617 111.079 373.946C110.443 373.283 110.239 372.389 110.239 371.488V334.559C110.239 332.783 109.346 330.854 107.878 329.352C106.413 327.853 104.481 326.886 102.534 326.886ZM88.4916 326.886H91.9856V371.488C91.9856 372.311 91.8182 372.555 91.7348 372.634C91.6398 372.724 91.3806 372.866 90.5986 372.866H82.7356C82.1385 372.866 81.8301 372.742 81.6727 372.605C81.5428 372.492 81.3486 372.222 81.3486 371.488V334.139C81.3486 332.924 82.1098 331.086 83.4866 329.518C84.8501 327.965 86.6344 326.886 88.4916 326.886ZM163.431 380.449C163.431 380.448 163.431 380.474 163.42 380.529C163.41 380.583 163.391 380.654 163.362 380.74C163.303 380.915 163.207 381.135 163.063 381.383C162.777 381.879 162.321 382.459 161.663 382.999C160.364 384.064 158.233 385.008 154.957 384.767C141.997 383.816 134.681 374.889 134.681 368.139V328.132C134.681 327.495 134.828 327.2 134.964 327.059C135.093 326.925 135.379 326.754 136.068 326.754H143.791C144.481 326.754 144.767 326.925 144.895 327.059C145.031 327.2 145.178 327.495 145.178 328.132V365.061C145.178 367.472 146.362 369.879 148.109 371.666C149.859 373.457 152.28 374.734 154.883 374.734H163.431V380.449ZM154.883 372.734H163.431V328.132C163.431 327.137 163.615 326.192 164.304 325.537C164.981 324.893 165.915 324.754 166.818 324.754H174.681C175.488 324.754 176.373 324.91 177.059 325.508C177.771 326.129 178.068 327.048 178.068 328.132V365.481C178.068 367.343 177.005 369.632 175.433 371.421C173.849 373.226 171.561 374.734 168.925 374.734H165.431V380.449C165.431 381.016 165.18 381.718 164.795 382.383C164.391 383.083 163.78 383.849 162.931 384.546C161.215 385.953 158.572 387.038 154.81 386.762C141.092 385.755 132.681 376.202 132.681 368.139V328.132C132.681 327.231 132.885 326.337 133.522 325.674C134.166 325.003 135.073 324.754 136.068 324.754H143.791C144.786 324.754 145.694 325.003 146.338 325.674C146.974 326.337 147.178 327.231 147.178 328.132V365.061C147.178 366.837 148.071 368.766 149.539 370.268C151.004 371.767 152.936 372.734 154.883 372.734ZM168.925 372.734H165.431V328.132C165.431 327.309 165.599 327.065 165.682 326.986C165.777 326.896 166.036 326.754 166.818 326.754H174.681C175.278 326.754 175.587 326.878 175.744 327.015C175.874 327.128 176.068 327.398 176.068 328.132V365.481C176.068 366.696 175.307 368.534 173.93 370.102C172.567 371.655 170.783 372.734 168.925 372.734Z" fill="#FEFBFF"/>
<circle cx="581.889" cy="86.4971" r="45.7505" fill="#E6E3E7"/>
<circle cx="637.647" cy="86.4971" r="45.7505" fill="#D7D7D7"/>
<path fill-rule="evenodd" clip-rule="evenodd" d="M609.768 122.595C620.636 114.23 627.64 101.092 627.64 86.3172C627.64 71.5427 620.636 58.404 609.768 50.0396C598.9 58.404 591.897 71.5427 591.897 86.3172C591.897 101.092 598.9 114.23 609.768 122.595Z" fill="#C4C4C4"/>
<rect x="80.0723" y="156.072" width="97.9347" height="69.3406" rx="6.07624" fill="url(#paint1_linear)" stroke="#211F21" stroke-width="2.14455"/>
<path d="M80.4297 178.59H109.739" stroke="#211F21" stroke-width="2" stroke-linecap="round"/>
<path d="M80.4297 200.75H109.096" stroke="#211F21" stroke-width="2" stroke-linecap="round"/>
<path d="M149.055 200.75H177.649" stroke="#211F21" stroke-width="2" stroke-linecap="round"/>
<path d="M148.626 179.305H177.649" stroke="#211F21" stroke-width="2" stroke-linecap="round"/>
<circle cx="129.04" cy="166.438" r="2.14455" fill="#211F21"/>
<path d="M230.705 205.701C235.976 192.467 236.577 184.996 230.705 171.522C230.081 170.093 230.705 168.901 231.42 168.663C232.134 168.425 233.24 168.663 233.921 170.093C240.839 184.608 240.418 192.747 234.279 207.265C233.564 208.695 232.226 208.875 231.42 208.337C230.476 207.708 230.259 206.819 230.705 205.701Z" fill="#FEFBFF"/>
<path d="M223.199 172.595C222.484 172.952 222.027 174.308 222.841 175.812C227.65 185.817 227.453 191.54 222.841 201.904C222.338 202.949 222.65 204.103 223.556 204.406C224.628 204.763 225.565 204.003 226.058 202.976C231.352 191.962 231.492 185.634 226.058 174.024C225.556 172.952 224.271 172.059 223.199 172.595Z" fill="#FEFBFF"/>
<path d="M216.05 177.241C214.978 177.599 214.788 178.785 215.335 180.101C218.182 186.94 218.63 190.775 215.335 197.615C214.693 198.806 214.481 200.07 215.693 200.474C216.904 200.878 217.777 200.24 218.195 199.402C222.418 191.027 221.471 186.331 218.195 177.956C217.915 177.241 217.123 176.884 216.05 177.241Z" fill="#FEFBFF"/>
<path d="M208.544 180.101C207.472 180.815 207.32 181.9 208.187 183.675C209.996 187.442 209.955 189.558 208.187 193.325C207.365 194.987 207.115 196.9 208.544 197.257C209.974 197.615 210.609 197.107 211.404 195.113C213.229 189.865 213.407 186.898 211.404 181.53C210.942 180.138 209.974 179.386 208.544 180.101Z" fill="#FEFBFF"/>
<path d="M144.766 170.727C142.024 161.386 136.903 156.787 128.682 156.787C118.674 156.787 115.846 164.408 109.739 178.233C113.649 187.384 113.69 192.314 109.739 200.75C116.145 219.132 120.891 224.793 129.04 224.698C139.762 224.698 142.814 215.61 148.698 200.75C145.604 192.375 145.273 187.753 148.151 179.377" stroke="#211F21" stroke-width="2" stroke-linecap="round"/>
<circle cx="581.75" cy="86.7505" r="45.7505" fill="#E71924"/>
<circle cx="637.509" cy="86.7505" r="45.7505" fill="#F99F19"/>
<path fill-rule="evenodd" clip-rule="evenodd" d="M609.63 122.848C620.498 114.484 627.501 101.345 627.501 86.5706C627.501 71.7962 620.498 58.6574 609.63 50.293C598.762 58.6574 591.758 71.7962 591.758 86.5706C591.758 101.345 598.762 114.484 609.63 122.848Z" fill="#F26520"/>
<defs>
<filter id="filter0_i" x="0" y="0" width="725" height="461" filterUnits="userSpaceOnUse" color-interpolation-filters="sRGB">
<feFlood flood-opacity="0" result="BackgroundImageFix"/>
<feBlend mode="normal" in="SourceGraphic" in2="BackgroundImageFix" result="shape"/>
<feColorMatrix in="SourceAlpha" type="matrix" values="0 0 0 0 0 0 0 0 0 0 0 0 0 0 0 0 0 0 127 0" result="hardAlpha"/>
<feOffset dx="3" dy="3"/>
<feGaussianBlur stdDeviation="3"/>
<feComposite in2="hardAlpha" operator="arithmetic" k2="-1" k3="1"/>
<feColorMatrix type="matrix" values="0 0 0 0 1 0 0 0 0 1 0 0 0 0 1 0 0 0 0.25 0"/>
<feBlend mode="normal" in2="shape" result="effect1_innerShadow"/>
</filter>
<linearGradient id="paint0_linear" x1="702" y1="17" x2="14" y2="449" gradientUnits="userSpaceOnUse">
<stop stop-color="#25022F"/>
<stop offset="1" stop-color="#470959"/>
</linearGradient>
<linearGradient id="paint1_linear" x1="129.04" y1="155" x2="129.04" y2="226.485" gradientUnits="userSpaceOnUse">
<stop stop-color="#F4F4F4"/>
<stop offset="1" stop-color="#D6D6D6"/>
</linearGradient>
</defs>
</svg>
